<?xml version="1.0" standalone="no"?>
<!DOCTYPE svg PUBLIC "-//W3C//DTD SVG 20010904//EN"
 "http://www.w3.org/TR/2001/REC-SVG-20010904/DTD/svg10.dtd">
<svg version="1.0" xmlns="http://www.w3.org/2000/svg"
 width="260.000000pt" height="260.000000pt" viewBox="0 0 260.000000 260.000000"
 preserveAspectRatio="xMidYMid meet">
<metadata>
Created by potrace 1.11, written by Peter Selinger 2001-2013
</metadata>
<g transform="translate(0.000000,260.000000) scale(0.100000,-0.100000)"
fill="#000000" stroke="none">
<path d="M475 1884 c-14 -15 -21 -32 -18 -41 4 -9 -1 -19 -11 -25 -13 -8 -15
-13 -5 -24 9 -11 9 -17 -1 -29 -10 -12 -10 -15 0 -15 9 0 9 -4 2 -12 -11 -14
-12 -18 -12 -43 0 -17 -89 -109 -97 -101 -9 9 -41 -34 -47 -64 -1 -3 -5 -11
-9 -18 -5 -7 -2 -14 7 -18 8 -3 17 -13 20 -21 5 -13 4 -14 -9 -3 -14 11 -14
10 -5 -14 13 -35 13 -39 -2 -30 -10 6 -10 4 0 -8 10 -13 10 -17 -3 -22 -9 -3
-15 -11 -14 -18 3 -29 -2 -49 -11 -43 -5 3 -7 0 -4 -9 6 -15 -28 -40 -40 -29
-3 3 -6 2 -6 -4 0 -6 -10 -9 -22 -9 -30 3 -58 -21 -51 -42 5 -11 3 -13 -8 -7
-8 5 -4 -3 7 -16 17 -18 20 -29 13 -47 -5 -14 -13 -20 -20 -16 -8 4 -9 3 -5
-5 4 -6 2 -18 -4 -26 -13 -16 -5 -69 9 -61 4 3 7 -5 7 -17 -1 -12 2 -27 7 -34
11 -16 -23 -54 -52 -56 -11 -1 -21 -5 -21 -9 0 -4 -5 -8 -11 -8 -20 0 -35 -25
-36 -62 0 -21 4 -35 8 -32 5 3 9 1 9 -5 0 -5 -6 -12 -12 -14 -10 -4 -10 -6 0
-6 8 -1 10 -6 6 -13 -5 -9 -2 -9 9 1 19 15 23 26 5 15 -7 -4 -8 -3 -4 5 4 6
11 9 16 6 10 -6 8 -24 -5 -45 -5 -9 1 -7 15 5 19 16 22 17 17 3 -8 -22 3 -30
21 -15 10 7 13 8 9 1 -8 -13 20 -41 30 -30 3 3 1 6 -5 6 -7 0 -12 5 -12 12 0
6 11 1 26 -13 17 -16 23 -18 19 -7 -5 12 -2 16 11 14 10 -2 20 -9 22 -17 3
-12 2 -12 -6 0 -7 10 -9 6 -9 -14 0 -23 1 -25 9 -11 5 9 14 13 20 10 6 -4 8
-3 5 3 -3 5 0 10 8 10 8 0 12 -3 10 -7 -2 -3 5 -12 17 -19 11 -7 17 -8 14 -3
-3 6 6 13 19 16 17 4 23 11 19 19 -5 9 -4 9 6 0 12 -11 11 -16 -6 -28 -18 -14
-17 -14 9 -4 15 7 27 16 27 21 0 5 7 2 16 -6 8 -9 20 -14 25 -10 5 3 12 -2 15
-11 5 -12 9 -13 14 -5 5 8 10 2 14 -15 7 -26 8 -27 22 -9 9 11 13 14 10 7 -4
-6 -2 -14 4 -18 5 -3 10 0 10 7 0 8 3 9 8 3 10 -14 32 -17 32 -5 0 6 5 10 11
10 5 0 7 -6 3 -12 -5 -9 -2 -9 9 1 20 16 22 25 4 16 -6 -4 -4 0 6 8 9 8 17 18
17 23 0 6 8 10 18 10 10 0 19 -6 19 -12 0 -7 -7 -10 -16 -7 -13 4 -14 3 -2 -5
9 -6 23 -7 38 -1 16 6 22 5 20 -4 -1 -7 6 -12 16 -12 10 0 23 -7 28 -15 10
-13 10 -13 6 1 -3 9 4 21 16 29 20 12 21 12 8 -3 -15 -19 -2 -24 16 -6 8 8 13
7 18 -2 5 -7 4 -10 -2 -6 -5 3 -10 0 -10 -8 0 -11 4 -12 14 -4 7 6 11 15 8 19
-3 4 2 11 11 14 8 3 13 2 10 -3 -3 -4 1 -16 8 -26 10 -14 15 -15 21 -5 6 9 4
11 -6 5 -10 -6 -11 -5 -3 4 13 14 47 4 37 -12 -4 -6 -1 -7 6 -3 7 5 10 13 8
20 -3 7 4 13 14 13 10 1 19 -3 19 -8 0 -6 -5 -7 -12 -3 -7 4 -8 3 -4 -4 4 -6
13 -9 21 -6 8 4 12 10 9 15 -3 5 3 6 12 2 10 -4 15 -2 11 3 -3 5 3 10 13 10
12 0 16 -5 12 -16 -3 -8 -2 -12 3 -8 4 4 14 0 22 -10 13 -15 13 -15 4 5 -17
34 -12 40 10 13 12 -15 19 -18 16 -8 -3 9 0 19 8 22 10 3 12 0 8 -12 -6 -15
-5 -16 12 -2 17 14 17 13 10 -10 -7 -24 -7 -24 8 -5 8 11 13 24 10 30 -4 6 -2
6 3 2 5 -5 9 -13 9 -18 0 -5 5 -9 10 -8 6 0 9 8 7 17 -2 14 0 14 13 -2 9 -12
15 -15 15 -7 0 8 7 11 19 8 14 -3 18 -1 14 9 -3 9 2 14 18 14 22 0 22 1 4 13
-14 11 -15 16 -5 22 8 5 11 4 7 -2 -4 -6 0 -13 8 -17 9 -3 12 -12 8 -22 -5
-14 -3 -16 11 -11 10 4 19 1 22 -8 4 -8 10 -12 15 -9 16 10 70 14 64 5 -3 -5
1 -11 9 -14 10 -4 13 1 10 16 -2 12 -2 16 2 9 3 -6 11 -9 16 -6 6 4 8 2 5 -3
-4 -6 0 -13 8 -17 8 -3 14 0 12 6 -1 6 4 13 12 16 8 3 11 0 7 -7 -11 -17 5
-13 27 6 11 10 17 12 13 6 -4 -7 -2 -13 3 -13 6 0 11 6 11 13 0 6 5 4 11 -5
11 -21 30 -24 25 -5 -1 6 -1 9 1 5 2 -4 12 -4 21 -1 14 6 15 4 5 -8 -10 -12
-8 -15 7 -15 10 0 18 4 17 9 -1 5 4 12 12 15 8 3 11 0 7 -7 -4 -6 -3 -11 3
-11 5 0 13 5 16 10 4 6 11 8 16 5 5 -4 9 0 9 7 0 7 9 0 20 -17 11 -16 20 -25
20 -20 0 6 -5 16 -11 22 -8 8 -7 13 2 18 8 5 10 4 5 -3 -4 -7 -3 -12 3 -12 5
0 13 5 16 10 5 8 11 8 20 0 10 -8 16 -7 25 7 10 16 11 16 6 1 -3 -10 -1 -20 5
-23 5 -4 7 -9 5 -13 -2 -4 16 -7 40 -8 33 0 43 3 40 13 -3 7 -2 12 2 12 21 -4
32 2 26 14 -4 6 3 3 16 -8 l23 -20 -13 25 c-12 22 -11 24 2 13 8 -7 18 -10 22
-6 4 4 4 1 1 -8 -4 -10 1 -15 15 -16 11 -1 20 3 20 8 0 6 -5 7 -12 3 -7 -4 -8
-3 -4 5 6 9 11 9 23 -1 20 -16 16 -16 38 2 11 8 16 10 12 4 -4 -7 2 -14 14
-17 17 -5 18 -3 8 11 -11 14 -11 15 1 5 9 -8 19 -9 31 -2 14 7 17 6 13 -5 -3
-8 0 -17 7 -22 7 -4 10 -3 6 3 -4 6 0 16 8 23 13 11 14 10 8 -6 -6 -16 -5 -17
9 -6 14 11 18 10 28 -5 10 -17 11 -16 5 2 -4 18 0 21 24 20 22 0 27 -3 19 -12
-7 -9 -7 -13 0 -13 6 0 14 5 17 10 4 7 12 7 24 0 18 -9 41 -8 84 6 19 6 20 5
9 -9 -10 -12 -10 -17 -1 -23 8 -5 9 -3 4 6 -6 10 -4 12 7 7 9 -3 21 0 27 6 9
9 14 8 22 -3 8 -12 9 -11 4 6 -4 17 -1 21 19 20 14 -1 28 -5 32 -9 4 -3 -2 -5
-13 -3 -12 3 -20 -1 -20 -10 0 -10 4 -11 14 -3 7 6 13 8 13 4 0 -4 7 -2 15 5
8 7 15 9 15 5 0 -4 7 -2 15 5 8 7 16 10 16 6 1 -3 2 -10 3 -15 0 -5 5 -13 10
-18 6 -5 6 -2 1 6 -6 11 -4 13 10 7 15 -5 16 -4 5 9 -11 13 -10 14 4 9 15 -6
20 -17 17 -36 -2 -13 6 -9 20 9 10 11 10 14 2 9 -7 -4 -13 -2 -13 3 0 15 27
14 33 -1 4 -8 6 -7 6 3 1 9 9 23 18 30 15 12 16 12 8 -1 -4 -8 -4 -12 0 -7 12
11 12 60 0 69 -6 5 -5 8 2 8 9 0 10 7 4 23 -5 12 -8 25 -7 29 0 3 -3 10 -8 15
-6 5 -6 2 -1 -7 5 -8 5 -12 1 -8 -5 4 -18 3 -30 -1 -11 -5 -30 -5 -41 -1 -11
4 -27 3 -35 -4 -13 -10 -13 -9 -1 6 7 10 17 15 23 12 5 -3 16 0 24 7 12 10 13
9 8 -5 -6 -15 -2 -14 30 4 21 11 34 15 30 9 -5 -8 -3 -9 5 -4 11 6 11 54 2
103 -1 2 -13 2 -28 0 -17 -2 -28 2 -30 12 -4 12 -3 12 5 1 8 -11 12 -10 21 5
6 11 11 13 11 7 0 -7 5 -13 11 -13 6 0 9 7 5 15 -3 8 -2 15 2 15 5 0 8 24 9
54 1 59 -12 75 -46 56 -10 -5 -21 -6 -25 -3 -8 9 -91 7 -105 -2 -7 -4 -19 -1
-28 7 -12 9 -17 10 -20 2 -4 -12 -40 -7 -60 8 -7 6 -14 5 -18 -3 -5 -7 -13 0
-21 20 -12 28 -16 31 -34 21 -11 -6 -20 -9 -21 -8 -5 18 -3 58 3 58 4 0 8 5 8
10 0 6 -5 9 -11 8 -6 -2 -14 4 -16 12 -3 9 -1 11 4 5 4 -5 13 -11 18 -12 6 -1
19 -5 29 -9 13 -5 17 -4 12 4 -5 8 -2 10 8 6 9 -3 13 -11 9 -17 -3 -6 -1 -7 6
-3 9 6 9 11 -1 24 -11 13 -10 15 5 9 13 -5 16 -3 10 6 -4 6 -8 23 -8 36 0 31
-31 48 -115 64 -14 3 -45 10 -70 17 -25 7 -49 13 -55 14 -5 1 -14 4 -20 7 -5
4 -18 5 -27 4 -10 -2 -18 1 -18 7 0 5 -6 8 -12 5 -7 -2 -30 2 -50 9 -21 7 -38
11 -38 7 0 -3 -6 -1 -12 5 -7 6 -17 11 -23 13 -38 9 -45 12 -45 21 0 5 5 6 12
2 7 -5 8 -3 3 7 -13 20 -13 89 -1 89 7 0 8 3 1 8 -14 10 -18 35 -5 27 7 -4 10
0 8 11 -2 11 2 18 10 17 6 -2 12 2 12 7 0 6 5 10 10 10 7 0 7 -6 1 -18 -7 -14
-6 -19 4 -19 8 0 12 4 9 8 -2 4 0 10 6 14 6 4 8 12 4 18 -3 7 3 3 13 -8 14
-16 30 -20 70 -20 28 0 54 3 57 6 4 3 -11 5 -33 4 -30 -1 -38 1 -34 12 3 8 9
11 12 6 3 -5 18 -9 33 -8 15 1 43 -4 63 -11 28 -9 34 -9 26 0 -8 9 -5 12 9 11
11 -1 23 -5 27 -10 5 -4 2 -5 -4 -1 -7 4 -13 2 -13 -3 0 -6 10 -9 23 -7 12 3
26 5 30 5 5 1 5 6 1 12 -5 8 -1 8 14 0 26 -14 35 -14 27 -1 -4 6 4 5 19 -1 14
-7 23 -16 20 -20 -3 -5 2 -6 11 -3 14 6 14 8 -2 19 -16 12 -14 12 10 8 21 -4
27 -10 23 -22 -5 -13 -4 -13 8 2 15 19 31 24 20 5 -4 -7 -3 -8 4 -4 7 4 12 14
12 22 0 8 5 14 11 14 5 0 8 -4 5 -9 -3 -5 2 -15 12 -22 15 -12 16 -12 4 2 -10
13 -10 19 2 28 11 9 16 9 22 0 4 -8 3 -9 -4 -5 -7 4 -12 2 -12 -4 0 -7 6 -10
13 -7 6 2 11 10 9 17 -5 20 30 38 70 36 33 -1 36 1 21 12 -15 11 -15 12 -1 12
9 0 18 3 21 8 2 4 2 1 1 -6 -3 -9 1 -10 15 -3 10 6 21 7 25 4 3 -3 6 -1 6 6 0
8 -7 11 -17 7 -17 -7 -17 -6 -1 10 15 15 19 15 35 3 15 -11 14 -9 -2 10 -11
14 -14 21 -7 17 7 -4 12 -1 12 9 0 9 4 14 9 11 12 -8 8 37 -4 46 -16 12 -23
10 -52 -19 -43 -43 -73 -53 -100 -36 -21 14 -23 13 -34 -11 -7 -14 -15 -26
-18 -27 -3 0 -15 -2 -26 -4 -46 -9 -151 -16 -315 -21 -246 -7 -259 -9 -331
-56 -41 -26 -50 -37 -46 -55 2 -13 1 -23 -3 -23 -4 0 -4 -19 0 -43 6 -40 4
-43 -16 -45 -13 -1 -26 3 -29 8 -4 6 -10 8 -14 5 -5 -2 -23 0 -42 6 -19 6 -43
12 -54 14 -11 3 -29 7 -40 10 -158 39 -149 39 -204 11 -28 -14 -51 -22 -51
-18 0 4 -4 2 -8 -4 -9 -15 -88 -54 -96 -49 -3 3 -4 2 -2 -1 5 -6 -117 -73
-138 -77 -6 -1 -17 -8 -24 -14 -7 -7 -20 -13 -27 -13 -7 0 -21 -7 -29 -16 -9
-8 -25 -16 -36 -17 -11 -1 -20 -4 -20 -8 0 -4 -7 -10 -16 -13 -14 -5 -15 -4
-4 9 11 13 10 14 -5 9 -13 -5 -16 -4 -11 4 4 7 2 12 -6 12 -8 0 -9 3 -3 8 13
9 15 52 2 52 -5 0 -7 6 -4 13 4 10 -2 13 -20 9 -18 -3 -24 -1 -19 7 4 6 12 9
17 6 5 -4 9 -1 9 5 0 6 4 9 9 5 6 -3 6 7 0 27 -5 18 -9 34 -9 35 0 1 -14 10
-32 19 -18 9 -37 22 -43 28 -22 25 -46 77 -39 88 4 6 3 8 -4 4 -6 -3 -13 -2
-17 4 -3 5 -2 10 3 10 6 0 8 9 5 20 -3 11 -10 20 -15 20 -6 0 -5 7 2 15 9 10
9 19 2 28 -5 6 -12 28 -15 48 -11 86 -63 116 -112 63z m1449 -223 c3 -5 -1
-11 -9 -14 -9 -4 -12 -1 -8 9 6 16 10 17 17 5z m-640 -193 c-3 -4 -11 -5 -19
-1 -21 7 -19 12 4 10 11 0 18 -5 15 -9z m61 2 c-3 -5 -16 -10 -28 -9 -20 1
-20 2 3 9 14 4 26 8 28 9 2 1 0 -3 -3 -9z m35 -10 c0 -5 6 -7 14 -4 8 3 17 0
21 -6 6 -9 9 -9 15 0 5 8 11 8 22 -4 12 -11 18 -12 29 -3 11 10 11 9 0 -6 -10
-13 -17 -15 -27 -6 -7 6 -18 8 -23 5 -5 -4 -13 -1 -16 5 -4 5 -13 8 -21 5 -7
-3 -16 -1 -19 5 -4 5 -11 6 -17 3 -7 -4 -8 -2 -4 4 9 14 26 16 26 2z m-145
-18 c-16 -9 -34 -16 -38 -17 -4 0 -12 -7 -17 -15 -8 -13 -10 -13 -10 0 0 10
-5 7 -16 -8 -8 -12 -20 -20 -25 -16 -6 3 -17 -2 -24 -12 -11 -14 -14 -15 -15
-5 0 16 -15 5 -15 -11 0 -6 -11 -13 -23 -15 -14 -2 -22 1 -20 8 2 6 6 9 10 7
3 -2 15 6 27 16 12 11 21 16 21 12 0 -3 11 1 25 10 14 9 25 13 25 8 0 -4 7 1
15 12 8 10 15 15 15 10 0 -5 7 -3 15 4 8 7 15 9 15 6 0 -4 10 0 22 8 12 9 27
16 33 16 5 -1 -3 -8 -20 -18z m315 -25 c0 -4 5 -5 12 -1 7 4 8 3 4 -4 -5 -8
-13 -9 -24 -3 -9 4 -25 7 -34 6 -10 -2 -18 0 -18 5 0 4 14 7 30 6 17 0 30 -4
30 -9z m51 -11 c5 3 9 1 9 -5 0 -5 -9 -9 -19 -8 -12 1 -17 6 -13 16 4 10 7 11
10 3 2 -7 8 -10 13 -6z m56 -6 c17 13 17 13 1 -4 -16 -19 -38 -15 -38 7 0 8 4
7 9 -2 8 -13 12 -13 28 -1z m43 -20 c0 -5 -7 -7 -15 -4 -8 4 -15 8 -15 10 0 2
7 4 15 4 8 0 15 -4 15 -10z m44 -13 c16 -12 16 -14 2 -14 -9 0 -16 4 -16 9 0
5 -4 6 -10 3 -5 -3 -10 -1 -10 4 0 15 12 14 34 -2z m-404 -9 c0 -5 4 -7 9 -3
5 3 13 0 17 -6 4 -8 3 -9 -4 -5 -7 4 -12 2 -12 -3 0 -14 17 -14 25 0 5 6 12 4
22 -8 11 -14 14 -14 10 -2 -3 9 1 16 9 16 10 0 12 -7 8 -21 -6 -21 -6 -21 9
-1 15 20 16 20 26 -5 5 -14 10 -19 10 -11 1 10 4 11 15 2 11 -9 16 -9 22 0 4
7 3 9 -3 6 -5 -3 -10 0 -10 8 0 11 4 12 14 4 7 -6 11 -15 8 -19 -3 -4 2 -11
11 -14 8 -3 12 -2 9 3 -3 5 0 13 6 17 8 4 9 3 5 -4 -4 -7 -2 -12 5 -12 8 0 8
-5 -2 -17 -11 -15 -11 -16 1 -6 11 10 16 9 27 -5 12 -16 13 -16 7 1 -4 11 -1
17 10 17 9 0 16 -8 17 -17 0 -15 2 -15 7 -3 4 8 16 16 27 17 19 1 19 1 3 -11
-10 -7 -18 -17 -18 -21 0 -4 6 -3 13 3 11 9 41 16 61 13 5 0 2 -9 -5 -18 -13
-17 -13 -17 13 0 33 21 38 21 38 2 0 -8 5 -15 11 -15 5 0 7 5 3 11 -4 8 0 8
15 0 21 -12 21 -12 -11 -50 -27 -33 -34 -37 -43 -24 -10 13 -13 13 -24 -1 -10
-11 -18 -13 -31 -6 -12 7 -28 7 -44 0 -17 -6 -26 -6 -26 0 0 6 -13 9 -28 8
-15 -1 -33 1 -40 6 -7 4 -12 2 -12 -6 0 -10 -2 -10 -9 1 -5 8 -7 20 -4 28 8
21 -17 46 -32 33 -8 -7 -15 -7 -19 -2 -12 19 -140 -30 -137 -52 2 -9 -27 -64
-37 -70 -4 -2 -8 11 -8 30 0 27 4 33 16 29 11 -4 10 -1 -2 9 -20 15 -25 31 -6
20 6 -4 3 4 -8 19 -26 34 -63 54 -96 51 -16 -2 -28 2 -28 7 0 6 5 7 12 3 7 -5
9 -2 6 8 -4 8 0 15 8 15 7 0 11 -5 7 -10 -3 -5 4 -4 16 2 12 7 26 9 31 6 5 -3
14 4 20 16 7 13 8 19 2 15 -6 -3 -13 -2 -16 3 -7 11 13 9 31 -2 9 -6 11 -3 6
9 -4 10 -2 15 3 11 6 -3 16 -2 22 2 17 10 42 10 42 -1z m460 -2 c0 4 5 3 11
-3 6 -6 18 -9 25 -6 8 3 14 1 14 -4 0 -5 -9 -9 -20 -10 -11 -1 -20 2 -20 8 0
5 -3 8 -7 8 -20 -3 -33 2 -33 12 0 8 5 8 15 -1 8 -7 15 -9 15 -4z m85 -23 c14
-14 18 -14 26 -2 5 9 9 10 9 2 0 -18 -19 -26 -34 -14 -7 6 -15 9 -18 6 -2 -3
-5 2 -5 10 0 19 2 19 22 -2z m-865 2 c0 -13 -44 -43 -58 -38 -11 5 -13 3 -7
-7 6 -9 4 -11 -4 -6 -7 5 -18 0 -26 -10 -8 -11 -15 -15 -15 -11 0 5 -7 1 -16
-7 -8 -9 -19 -14 -24 -11 -12 7 -23 -32 -14 -47 6 -9 3 -9 -9 1 -9 7 -17 9
-17 4 0 -5 -9 -9 -20 -9 -20 0 -20 1 2 19 13 10 18 16 12 13 -7 -3 -15 2 -18
11 -4 10 -4 14 0 10 4 -4 16 0 26 10 14 13 18 13 18 2 0 -11 2 -11 10 1 7 11
10 11 10 2 0 -10 3 -10 14 0 8 7 12 16 9 21 -2 4 1 7 6 7 6 0 11 -6 11 -12 0
-9 3 -8 9 2 6 8 8 17 6 20 -2 3 11 7 28 8 17 2 35 9 40 17 7 14 27 21 27 10z
m214 -13 c2 -4 -4 -8 -14 -8 -10 0 -16 4 -14 8 3 4 9 8 14 8 5 0 11 -4 14 -8z
m697 -15 c-10 -9 -11 -8 -5 6 3 10 9 15 12 12 3 -3 0 -11 -7 -18z m76 -12 c0
-20 -4 -19 -17 5 -8 15 -8 18 3 14 8 -3 14 -11 14 -19z m-417 11 c0 -3 -4 -8
-10 -11 -5 -3 -10 -1 -10 4 0 6 5 11 10 11 6 0 10 -2 10 -4z m385 -6 c3 -6 -1
-7 -9 -4 -18 7 -21 14 -7 14 6 0 13 -4 16 -10z m75 -6 c0 -8 -19 -13 -24 -6
-3 5 1 9 9 9 8 0 15 -2 15 -3z m67 -17 c6 2 14 0 17 -6 4 -6 14 -8 24 -5 14 5
14 3 -2 -6 -14 -9 -20 -9 -25 -1 -4 7 -15 9 -24 5 -9 -3 -17 -1 -17 4 0 6 -9
9 -21 7 -17 -4 -19 -2 -8 11 10 12 14 13 28 1 9 -8 21 -12 28 -10z m-1662 -37
c4 -6 3 -10 -2 -9 -19 3 -27 -2 -15 -10 11 -7 11 -9 -1 -14 -16 -6 -17 9 -4
31 10 15 14 15 22 2z m1480 -62 c-1 -16 2 -28 7 -28 6 0 4 -8 -3 -17 -12 -14
-12 -16 0 -9 11 7 11 5 3 -10 -6 -11 -7 -27 -1 -42 7 -17 6 -29 -3 -40 -11
-13 -11 -14 2 -7 12 6 12 5 3 -5 -6 -7 -9 -19 -6 -27 3 -7 2 -13 -3 -12 -5 1
-11 0 -14 -1 -14 -7 -98 -5 -94 2 3 5 -5 6 -18 4 -13 -3 -23 -5 -23 -6 0 -1
-8 -3 -17 -5 -10 -2 -18 2 -18 8 0 5 -3 7 -7 4 -3 -4 -13 -1 -21 6 -13 10 -15
9 -8 -8 7 -19 6 -19 -11 -3 -12 13 -14 21 -6 29 7 7 15 6 27 -6 9 -9 16 -12
16 -5 0 7 7 5 16 -5 12 -12 19 -13 30 -4 8 6 14 8 14 3 0 -5 5 -1 11 9 7 12
15 15 27 8 14 -7 17 -4 18 20 1 17 10 36 20 44 11 8 14 14 7 15 -7 0 -13 5
-13 11 0 5 4 8 9 5 12 -8 8 13 -7 41 -17 30 -15 36 7 30 14 -3 18 -1 14 9 -3
8 -10 11 -16 7 -5 -3 -7 -2 -4 3 3 6 19 10 35 9 26 0 29 -3 27 -27z m-492 -22
c-3 -4 -9 -2 -14 5 -13 22 -11 31 5 17 8 -7 12 -17 9 -22z m-706 7 c-5 14 -3
16 12 8 10 -6 20 -8 23 -6 3 3 5 -1 5 -9 0 -8 -8 -13 -19 -11 -10 2 -18 0 -18
-6 0 -5 5 -9 11 -9 5 0 7 -4 4 -10 -3 -5 -1 -10 6 -10 7 0 2 -9 -11 -20 -13
-11 -19 -20 -13 -20 11 0 12 -54 1 -65 -3 -3 -15 7 -27 24 -12 16 -17 32 -12
35 4 3 9 17 9 32 0 14 6 30 13 35 12 7 12 9 0 9 -8 0 -11 3 -8 7 4 3 1 13 -5
22 -7 9 -2 7 11 -4 22 -18 24 -18 18 -2z m201 -19 c4 3 8 -4 8 -15 0 -10 -7
-19 -14 -19 -9 0 -12 6 -8 16 6 15 4 15 -11 3 -11 -9 -14 -10 -9 -1 4 6 2 12
-4 12 -7 0 -6 5 2 14 11 12 14 12 21 0 5 -8 11 -12 15 -10z m505 2 c9 10 37
-16 37 -33 0 -8 -9 -17 -20 -20 -11 -3 -20 -9 -20 -13 0 -10 -41 -21 -52 -14
-4 3 -3 15 4 27 19 34 19 49 0 43 -15 -5 -15 -5 0 7 10 8 14 18 10 23 -4 5 2
1 14 -9 11 -9 24 -14 27 -11z m670 -33 c-6 -2 -8 -15 -5 -28 3 -17 -1 -27 -12
-31 -9 -3 -14 -9 -11 -13 2 -4 -2 -8 -9 -8 -14 0 -16 13 -5 32 4 6 5 18 4 28
-2 9 2 17 8 17 9 0 9 2 1 8 -13 8 -15 44 -2 36 4 -3 8 1 8 8 1 7 8 0 17 -17 9
-17 12 -30 6 -32z m-713 3 c0 -2 -7 -9 -15 -16 -13 -11 -14 -10 -9 4 5 14 24
23 24 12z m-108 -18 c-8 -8 -9 -15 -1 -25 9 -9 8 -17 -1 -28 -11 -13 -10 -14
3 -10 9 4 21 -2 29 -14 8 -12 17 -19 20 -16 2 3 5 -2 5 -10 0 -20 -25 -27 -49
-14 -15 8 -19 8 -13 0 7 -13 -35 -9 -56 5 -8 4 -9 3 -5 -4 9 -15 1 -15 -26 -1
-13 7 -18 7 -14 1 7 -12 -42 -11 -61 1 -6 4 -13 2 -15 -5 -4 -10 -8 -9 -19 2
-18 20 -22 40 -7 40 6 0 3 7 -8 15 -10 8 -17 15 -14 16 46 10 80 -7 64 -33 -6
-10 -4 -10 9 0 9 8 21 11 26 8 5 -4 14 2 20 11 6 10 11 12 11 6 0 -15 40 -18
40 -3 0 6 15 24 33 40 31 28 53 42 29 18z m-916 -53 c9 -21 25 -19 17 3 -5 13
-1 12 16 -5 22 -24 37 -31 26 -13 -3 6 -1 10 4 10 6 0 11 -7 11 -15 0 -8 5
-15 10 -15 6 0 10 -5 10 -11 0 -5 -5 -7 -11 -3 -8 4 -9 -1 -4 -17 6 -22 3 -21
-24 8 -17 18 -42 35 -56 39 -14 3 -25 12 -25 20 0 19 19 18 26 -1z m-206 -19
c0 -11 -19 -15 -25 -6 -3 5 1 10 9 10 9 0 16 -2 16 -4z m1273 -21 c-3 -9 -8
-14 -10 -11 -3 3 -2 9 2 15 9 16 15 13 8 -4z m657 0 c7 -8 17 -12 23 -8 6 3 7
1 3 -6 -4 -6 -12 -9 -17 -6 -5 4 -9 0 -9 -7 0 -10 -3 -9 -9 2 -6 8 -8 17 -5
21 2 4 -2 10 -8 12 -8 4 -9 6 -2 6 6 1 17 -6 24 -14z m-714 -7 c4 -7 3 -8 -4
-4 -7 4 -12 2 -12 -5 0 -7 -3 -10 -6 -6 -6 5 3 27 11 27 2 0 7 -5 11 -12z
m954 -25 c0 -7 -39 17 -46 28 -3 6 5 3 20 -6 14 -10 26 -19 26 -22z m-180 23
c0 -2 -8 -10 -17 -17 -16 -13 -17 -12 -4 4 13 16 21 21 21 13z m230 -16 c0 -5
-2 -10 -4 -10 -3 0 -8 5 -11 10 -3 6 -1 10 4 10 6 0 11 -4 11 -10z m-1736 -71
c-4 -7 0 -9 14 -5 12 4 22 1 25 -8 9 -22 -3 -26 -29 -9 -20 13 -25 33 -8 33 3
0 2 -5 -2 -11z m252 -35 c-5 -12 -2 -15 9 -10 9 3 13 2 10 -3 -3 -5 0 -13 6
-17 7 -4 9 -3 6 2 -3 6 -2 16 4 24 7 13 9 12 9 -2 0 -10 6 -18 13 -18 9 0 9
-2 -1 -9 -11 -7 -11 -9 2 -14 9 -4 16 -11 16 -16 0 -6 -7 -8 -15 -5 -8 4 -15
1 -15 -5 0 -6 -4 -11 -10 -11 -5 0 -9 3 -9 8 3 19 -2 33 -10 27 -5 -3 -16 2
-25 10 -13 13 -13 20 -3 35 14 24 21 26 13 4z m267 -7 c3 -7 -3 -13 -14 -13
-13 0 -15 3 -7 13 6 7 12 13 13 13 2 0 5 -6 8 -13z m109 -1 c3 2 8 -2 12 -11
4 -12 2 -14 -13 -6 -10 6 -20 9 -22 7 -2 -2 -18 -6 -35 -9 -21 -3 -31 -1 -31
8 0 9 11 12 34 9 26 -3 33 -1 27 8 -6 10 -5 11 8 1 8 -7 17 -10 20 -7z m48 -7
c11 -19 10 -20 -10 -9 -11 6 -18 15 -15 21 9 13 13 11 25 -12z m483 7 c23 2
37 -1 37 -8 0 -6 -3 -8 -7 -5 -3 4 -12 2 -20 -4 -8 -8 -13 -8 -13 -1 0 11 -18
11 -37 -1 -6 -4 -14 -3 -17 2 -3 5 -24 8 -47 6 -22 -2 -38 -1 -35 3 3 3 20 6
36 7 16 1 33 4 36 8 4 4 12 3 18 -2 6 -4 28 -7 49 -5z m69 7 c-6 -2 -9 -9 -6
-14 3 -6 11 -5 20 2 10 8 14 8 14 0 0 -6 -3 -11 -7 -12 -5 0 -15 -2 -24 -4
-15 -2 -17 7 -10 33 1 1 7 2 14 1 9 0 9 -2 -1 -6z m116 -3 c-2 -5 2 -9 7 -7 6
1 9 7 7 12 -2 6 2 4 9 -2 15 -15 10 -22 -19 -28 -18 -3 -21 5 -13 33 3 7 11 0
9 -8z m94 -14 c12 -22 14 -23 28 -8 13 14 12 15 -3 9 -10 -4 -17 -2 -17 4 0 6
9 9 20 6 11 -3 23 -1 26 4 3 5 11 9 17 8 9 0 8 -2 -1 -6 -6 -2 -9 -9 -6 -14 4
-6 10 -6 18 0 8 7 17 6 26 -1 12 -8 12 -9 -2 -4 -10 3 -18 2 -18 -3 0 -5 -9
-11 -19 -14 -15 -3 -18 -1 -14 12 4 13 3 13 -5 2 -6 -8 -8 -20 -5 -28 3 -7 0
-13 -5 -13 -6 0 -13 -9 -17 -19 -5 -16 -9 -17 -29 -8 -24 11 -29 38 -12 65 4
7 4 17 1 22 -3 6 -4 10 -1 10 3 0 11 -11 18 -24z m238 7 c8 2 21 6 28 10 8 6
12 2 12 -10 0 -10 4 -14 8 -8 11 15 29 16 35 2 3 -8 -7 -12 -32 -11 -20 1 -38
3 -41 4 -15 7 -37 4 -57 -8 -17 -11 -25 -11 -42 0 -28 17 -26 23 4 24 20 2 23
-1 15 -11 -9 -11 -7 -12 9 -8 11 3 20 8 19 12 -2 18 3 22 15 13 7 -6 19 -10
27 -9z m120 13 c0 -2 -7 -7 -16 -10 -8 -3 -12 -2 -9 4 6 10 25 14 25 6z m-957
-37 c3 -10 0 -22 -5 -26 -6 -3 -8 -2 -5 4 4 6 -1 19 -9 29 -15 19 -15 19 -9
-1 5 -15 3 -17 -6 -8 -6 6 -8 16 -5 22 9 15 33 3 39 -20z m477 22 c0 -10 -39
-11 -45 -2 -2 5 7 9 20 9 14 0 25 -3 25 -7z m94 0 c3 -5 0 -11 -7 -14 -8 -3
-14 1 -14 9 0 16 13 19 21 5z m-419 -51 c3 -6 -1 -7 -9 -4 -18 7 -21 14 -7 14
6 0 13 -4 16 -10z m-10 -19 c3 -5 2 -12 -3 -15 -5 -3 -9 1 -9 9 0 17 3 19 12
6z m109 -36 c3 -8 1 -15 -4 -15 -6 0 -10 7 -10 15 0 8 2 15 4 15 2 0 6 -7 10
-15z m-1454 -9 c0 -2 -7 -7 -16 -10 -8 -3 -12 -2 -9 4 6 10 25 14 25 6z m1957
-33 c-9 -8 -56 -13 -60 -6 -3 5 10 9 29 9 19 1 33 0 31 -3z m63 -8 c-7 -9 -15
-13 -19 -10 -3 3 1 10 9 15 21 14 24 12 10 -5z"/>
<path d="M1311 1353 c-1 -17 16 -25 25 -12 4 7 3 9 -4 5 -5 -3 -13 0 -15 6 -4
9 -6 10 -6 1z"/>
<path d="M1731 1244 c0 -11 3 -14 6 -6 3 7 2 16 -1 19 -3 4 -6 -2 -5 -13z"/>
<path d="M835 1240 c3 -5 8 -10 11 -10 2 0 4 5 4 10 0 6 -5 10 -11 10 -5 0 -7
-4 -4 -10z"/>
<path d="M1874 1040 c0 -13 4 -16 10 -10 7 7 7 13 0 20 -6 6 -10 3 -10 -10z"/>
<path d="M710 1049 c0 -5 5 -7 10 -4 6 3 10 8 10 11 0 2 -4 4 -10 4 -5 0 -10
-5 -10 -11z"/>
<path d="M1440 1126 c0 -2 7 -7 16 -10 8 -3 12 -2 9 4 -6 10 -25 14 -25 6z"/>
<path d="M2086 1141 c-3 -5 1 -11 9 -14 9 -4 12 -1 8 9 -6 16 -10 17 -17 5z"/>
<path d="M2081 1067 c-13 -21 -12 -21 5 -5 10 10 16 20 13 22 -3 3 -11 -5 -18
-17z"/>
<path d="M1255 1061 c-15 -17 -15 -19 -1 -17 22 3 40 22 28 30 -5 3 -17 -3
-27 -13z"/>
<path d="M1101 1034 c0 -11 3 -14 6 -6 3 7 2 16 -1 19 -3 4 -6 -2 -5 -13z"/>
<path d="M1187 1019 c7 -7 15 -10 18 -7 3 3 -2 9 -12 12 -14 6 -15 5 -6 -5z"/>
<path d="M1306 1017 c3 -10 9 -15 12 -12 3 3 0 11 -7 18 -10 9 -11 8 -5 -6z"/>
<path d="M2397 1693 c-4 -3 -7 -11 -7 -17 0 -6 5 -5 12 2 6 6 9 14 7 17 -3 3
-9 2 -12 -2z"/>
<path d="M2037 1629 c7 -7 15 -10 18 -7 3 3 -2 9 -12 12 -14 6 -15 5 -6 -5z"/>
<path d="M2150 1629 c-13 -9 -13 -10 1 -6 9 3 23 0 30 -6 11 -10 11 -9 0 6 -7
9 -14 17 -15 17 0 0 -8 -5 -16 -11z"/>
<path d="M2215 1220 c-3 -6 1 -7 9 -4 18 7 21 14 7 14 -6 0 -13 -4 -16 -10z"/>
<path d="M126 1202 c-3 -5 1 -9 9 -9 8 0 12 4 9 9 -3 4 -7 8 -9 8 -2 0 -6 -4
-9 -8z"/>
<path d="M353 715 c0 -8 4 -12 9 -9 5 3 6 10 3 15 -9 13 -12 11 -12 -6z"/>
<path d="M385 709 c-4 -6 -5 -12 -2 -15 2 -3 7 2 10 11 7 17 1 20 -8 4z"/>
<path d="M1645 700 c-3 -5 -1 -10 4 -10 6 0 11 5 11 10 0 6 -2 10 -4 10 -3 0
-8 -4 -11 -10z"/>
<path d="M2425 700 c-4 -6 -10 -8 -14 -6 -4 3 -8 -1 -8 -9 0 -13 4 -12 19 2
18 16 22 23 14 23 -3 0 -8 -5 -11 -10z"/>
<path d="M631 684 c0 -11 3 -14 6 -6 3 7 2 16 -1 19 -3 4 -6 -2 -5 -13z"/>
<path d="M1254 688 c-4 -7 -4 -10 1 -6 4 4 16 3 26 -3 11 -5 19 -7 19 -5 0 3
-9 10 -19 16 -15 7 -22 7 -27 -2z"/>
<path d="M1576 688 c3 -5 10 -6 15 -3 13 9 11 12 -6 12 -8 0 -12 -4 -9 -9z"/>
<path d="M1915 689 c-3 -4 2 -6 10 -5 21 3 28 13 10 13 -9 0 -18 -4 -20 -8z"/>
<path d="M2000 691 c0 -6 4 -13 10 -16 6 -3 7 1 4 9 -7 18 -14 21 -14 7z"/>
<path d="M920 679 c0 -5 5 -7 10 -4 6 3 10 8 10 11 0 2 -4 4 -10 4 -5 0 -10
-5 -10 -11z"/>
<path d="M1805 680 c-3 -6 1 -7 9 -4 18 7 21 14 7 14 -6 0 -13 -4 -16 -10z"/>
<path d="M2160 686 c0 -2 7 -7 16 -10 8 -3 12 -2 9 4 -6 10 -25 14 -25 6z"/>
</g>
</svg>
