<?xml version="1.0" standalone="no"?>
<!DOCTYPE svg PUBLIC "-//W3C//DTD SVG 20010904//EN"
 "http://www.w3.org/TR/2001/REC-SVG-20010904/DTD/svg10.dtd">
<svg version="1.0" xmlns="http://www.w3.org/2000/svg"
 width="16.000000pt" height="16.000000pt" viewBox="0 0 16.000000 16.000000"
 preserveAspectRatio="xMidYMid meet">
<metadata>
Created by potrace 1.11, written by Peter Selinger 2001-2013
</metadata>
<g transform="translate(0.000000,16.000000) scale(0.012500,-0.012500)"
fill="#000000" stroke="none">
<path d="M650 1254 c-63 -21 -86 -50 -95 -115 -16 -116 -27 -134 -113 -176
-81 -39 -92 -65 -68 -162 3 -15 -2 -34 -17 -55 -13 -17 -23 -37 -23 -43 -1 -7
-2 -17 -3 -22 0 -5 -26 -12 -56 -16 -75 -9 -96 -28 -99 -90 -1 -35 -10 -62
-29 -89 -30 -43 -26 -63 19 -92 19 -13 22 -20 13 -30 -6 -8 -22 -14 -36 -14
-92 0 -152 -96 -100 -158 30 -37 125 -86 177 -93 30 -4 69 -9 85 -12 17 -3 66
-8 110 -12 96 -7 152 -17 182 -33 39 -21 107 -15 137 13 25 23 29 24 54 11 43
-22 94 -27 127 -13 25 11 39 11 85 -1 93 -24 201 1 219 51 11 29 -4 79 -29 96
-11 7 -20 21 -20 30 0 9 -5 22 -11 28 -8 8 -7 19 2 39 8 16 17 26 21 24 3 -3
18 6 32 19 28 27 33 62 13 99 -21 37 -108 122 -132 128 -12 3 -32 18 -43 34
-22 29 -64 184 -61 223 4 47 -3 57 -69 96 -78 45 -106 87 -116 169 -8 66 -26
110 -57 138 -25 23 -73 36 -99 28z"/>
</g>
</svg>
